<svg width="28" height="11" viewBox="0 0 28 11" fill="none" xmlns="http://www.w3.org/2000/svg">
<path d="M3.81445 2.90997V5.57599H4.8125C5.3457 5.57599 5.75586 5.45978 6.04297 5.22736C6.33464 4.99038 6.48047 4.66225 6.48047 4.24298C6.48047 3.82371 6.33691 3.49786 6.0498 3.26544C5.7627 3.02846 5.35482 2.90997 4.82617 2.90997H3.81445ZM6.40527 9.66388H3.81445V10.8465H1.3125V9.66388H0.143555V8.21466H1.3125V7.367H0.143555V5.617H1.3125V0.982239H5.59863C6.61491 0.982239 7.4375 1.28302 8.06641 1.88458C8.69531 2.48159 9.00977 3.25633 9.00977 4.2088C9.00977 5.1476 8.67708 5.91779 8.01172 6.51935C7.34635 7.11635 6.48958 7.41486 5.44141 7.41486H3.81445V8.21466H6.40527V9.66388ZM13.1934 2.90997V5.57599H14.1914C14.7246 5.57599 15.1348 5.45978 15.4219 5.22736C15.7135 4.99038 15.8594 4.66225 15.8594 4.24298C15.8594 3.82371 15.7158 3.49786 15.4287 3.26544C15.1416 3.02846 14.7337 2.90997 14.2051 2.90997H13.1934ZM15.7842 9.66388H13.1934V10.8465H10.6914V9.66388H9.52246V8.21466H10.6914V7.367H9.52246V5.617H10.6914V0.982239H14.9775C15.9938 0.982239 16.8164 1.28302 17.4453 1.88458C18.0742 2.48159 18.3887 3.25633 18.3887 4.2088C18.3887 5.1476 18.056 5.91779 17.3906 6.51935C16.7253 7.11635 15.8685 7.41486 14.8203 7.41486H13.1934V8.21466H15.7842V9.66388Z" fill="black" fill-opacity="0.66"/>
<path d="M22.5723 2.90997V5.57599H23.5703C24.1035 5.57599 24.5137 5.45978 24.8008 5.22736C25.0924 4.99038 25.2383 4.66225 25.2383 4.24298C25.2383 3.82371 25.0947 3.49786 24.8076 3.26544C24.5205 3.02846 24.1126 2.90997 23.584 2.90997H22.5723ZM25.1631 9.66388H22.5723V10.8465H20.0703V9.66388H18.9014V8.21466H20.0703V7.367H18.9014V5.617H20.0703V0.982239H24.3564C25.3727 0.982239 26.1953 1.28302 26.8242 1.88458C27.4531 2.48159 27.7676 3.25633 27.7676 4.2088C27.7676 5.1476 27.4349 5.91779 26.7695 6.51935C26.1042 7.11635 25.2474 7.41486 24.1992 7.41486H22.5723V8.21466H25.1631V9.66388Z" fill="black" fill-opacity="0.22"/>
</svg>
