<svg width="16" height="13" viewBox="0 0 16 13" fill="none" xmlns="http://www.w3.org/2000/svg">
<path d="M4.8 13C3.3402 13.0007 2.06495 11.9981 1.7 10.5626H0V8.93762H1.7008C2.11651 7.30247 3.69609 6.26316 5.33542 6.54616C6.97476 6.82915 8.1275 8.34014 7.98789 10.023C7.84828 11.7058 6.46285 12.9996 4.8 13ZM4.8 8.12515C3.92592 8.12605 3.21431 8.83919 3.20179 9.72681C3.18926 10.6144 3.88045 11.348 4.75415 11.3743C5.62785 11.4007 6.36067 10.71 6.4 9.82322V10.1482V9.7501C6.4 8.85266 5.68366 8.12515 4.8 8.12515ZM16 10.5626H8.8V8.93762H16V10.5626ZM8.8 6.5002C7.3405 6.50058 6.06567 5.49796 5.7008 4.06278H0V2.43783H5.7008C6.11651 0.802676 7.69609 -0.23664 9.33543 0.0463561C10.9748 0.329352 12.1275 1.84034 11.9879 3.52316C11.8483 5.20597 10.4628 6.49977 8.8 6.5002ZM8.8 1.62535C7.92592 1.62625 7.21431 2.33939 7.20179 3.22701C7.18926 4.11464 7.88045 4.8482 8.75415 4.87453C9.62785 4.90087 10.3607 4.21024 10.4 3.32342V3.64841V3.2503C10.4 2.35287 9.68366 1.62535 8.8 1.62535ZM16 4.06278H12.8V2.43783H16V4.06278Z" fill="#7B7B7B"/>
</svg>
