<svg width="119" height="28" viewBox="0 0 119 28" fill="none" xmlns="http://www.w3.org/2000/svg">
<path d="M11.91 22.42C8.77 22.42 6.16 21.37 4.08 19.27C2.02 17.19 0.99 14.6 0.99 11.5C0.99 8.38 2.02 5.79 4.08 3.73C6.16 1.63 8.77 0.579999 11.91 0.579999C13.81 0.579999 15.56 1.03 17.16 1.93C18.78 2.81 20.04 4.01 20.94 5.53L17.37 7.6C16.85 6.66 16.11 5.93 15.15 5.41C14.19 4.87 13.11 4.6 11.91 4.6C9.87 4.6 8.22 5.24 6.96 6.52C5.72 7.82 5.1 9.48 5.1 11.5C5.1 13.5 5.72 15.15 6.96 16.45C8.22 17.73 9.87 18.37 11.91 18.37C13.11 18.37 14.19 18.11 15.15 17.59C16.13 17.05 16.87 16.32 17.37 15.4L20.94 17.47C20.04 18.99 18.78 20.2 17.16 21.1C15.56 21.98 13.81 22.42 11.91 22.42ZM32.2676 6.58C34.2876 6.58 36.0076 7.35 37.4276 8.89C38.8676 10.43 39.5876 12.3 39.5876 14.5C39.5876 16.74 38.8676 18.62 37.4276 20.14C36.0276 21.66 34.3076 22.42 32.2676 22.42C30.1676 22.42 28.5476 21.69 27.4076 20.23V28H23.5376V7H27.4076V8.77C28.5476 7.31 30.1676 6.58 32.2676 6.58ZM28.5776 17.56C29.3576 18.34 30.3476 18.73 31.5476 18.73C32.7476 18.73 33.7376 18.34 34.5176 17.56C35.3176 16.76 35.7176 15.74 35.7176 14.5C35.7176 13.26 35.3176 12.25 34.5176 11.47C33.7376 10.67 32.7476 10.27 31.5476 10.27C30.3476 10.27 29.3576 10.67 28.5776 11.47C27.7976 12.25 27.4076 13.26 27.4076 14.5C27.4076 15.74 27.7976 16.76 28.5776 17.56ZM53.7169 8.77V7H57.5869V22H53.7169V20.23C52.5569 21.69 50.9269 22.42 48.8269 22.42C46.8269 22.42 45.1069 21.66 43.6669 20.14C42.2469 18.6 41.5369 16.72 41.5369 14.5C41.5369 12.3 42.2469 10.43 43.6669 8.89C45.1069 7.35 46.8269 6.58 48.8269 6.58C50.9269 6.58 52.5569 7.31 53.7169 8.77ZM46.5769 17.56C47.3569 18.34 48.3469 18.73 49.5469 18.73C50.7469 18.73 51.7369 18.34 52.5169 17.56C53.3169 16.76 53.7169 15.74 53.7169 14.5C53.7169 13.26 53.3169 12.25 52.5169 11.47C51.7369 10.67 50.7469 10.27 49.5469 10.27C48.3469 10.27 47.3569 10.67 46.5769 11.47C45.7969 12.25 45.4069 13.26 45.4069 14.5C45.4069 15.74 45.7969 16.76 46.5769 17.56ZM68.2362 22.42C65.9762 22.42 64.0862 21.66 62.5662 20.14C61.0662 18.62 60.3162 16.74 60.3162 14.5C60.3162 12.26 61.0662 10.38 62.5662 8.86C64.0862 7.34 65.9762 6.58 68.2362 6.58C69.6962 6.58 71.0262 6.93 72.2262 7.63C73.4262 8.33 74.3362 9.27 74.9562 10.45L71.6262 12.4C71.3262 11.78 70.8662 11.29 70.2462 10.93C69.6462 10.57 68.9662 10.39 68.2062 10.39C67.0462 10.39 66.0862 10.78 65.3262 11.56C64.5662 12.32 64.1862 13.3 64.1862 14.5C64.1862 15.66 64.5662 16.64 65.3262 17.44C66.0862 18.2 67.0462 18.58 68.2062 18.58C68.9862 18.58 69.6762 18.41 70.2762 18.07C70.8962 17.71 71.3562 17.22 71.6562 16.6L75.0162 18.52C74.3562 19.72 73.4162 20.67 72.1962 21.37C70.9962 22.07 69.6762 22.42 68.2362 22.42ZM78.983 5.2C78.343 5.2 77.783 4.97 77.303 4.51C76.843 4.03 76.613 3.47 76.613 2.83C76.613 2.19 76.843 1.63 77.303 1.15C77.783 0.669999 78.343 0.429999 78.983 0.429999C79.643 0.429999 80.203 0.669999 80.663 1.15C81.143 1.63 81.383 2.19 81.383 2.83C81.383 3.47 81.143 4.03 80.663 4.51C80.203 4.97 79.643 5.2 78.983 5.2ZM80.933 22H77.063V7H80.933V22ZM93.2051 6.58C95.2251 6.58 96.9451 7.35 98.3651 8.89C99.8051 10.43 100.525 12.3 100.525 14.5C100.525 16.74 99.8051 18.62 98.3651 20.14C96.9651 21.66 95.2451 22.42 93.2051 22.42C91.1051 22.42 89.4851 21.69 88.3451 20.23V22H84.4751V0.999999H88.3451V8.77C89.4851 7.31 91.1051 6.58 93.2051 6.58ZM89.5151 17.56C90.2951 18.34 91.2851 18.73 92.4851 18.73C93.6851 18.73 94.6751 18.34 95.4551 17.56C96.2551 16.76 96.6551 15.74 96.6551 14.5C96.6551 13.26 96.2551 12.25 95.4551 11.47C94.6751 10.67 93.6851 10.27 92.4851 10.27C91.2851 10.27 90.2951 10.67 89.5151 11.47C88.7351 12.25 88.3451 13.26 88.3451 14.5C88.3451 15.74 88.7351 16.76 89.5151 17.56ZM116.034 20.14C114.514 21.66 112.634 22.42 110.394 22.42C108.154 22.42 106.274 21.66 104.754 20.14C103.234 18.62 102.474 16.74 102.474 14.5C102.474 12.28 103.234 10.41 104.754 8.89C106.294 7.35 108.174 6.58 110.394 6.58C112.614 6.58 114.494 7.35 116.034 8.89C117.574 10.43 118.344 12.3 118.344 14.5C118.344 16.72 117.574 18.6 116.034 20.14ZM107.484 17.47C108.264 18.25 109.234 18.64 110.394 18.64C111.554 18.64 112.524 18.25 113.304 17.47C114.084 16.69 114.474 15.7 114.474 14.5C114.474 13.3 114.084 12.31 113.304 11.53C112.524 10.75 111.554 10.36 110.394 10.36C109.234 10.36 108.264 10.75 107.484 11.53C106.724 12.33 106.344 13.32 106.344 14.5C106.344 15.68 106.724 16.67 107.484 17.47Z" fill="black"/>
</svg>
